<mxfile host="app.diagrams.net" agent="Mozilla/5.0 (Windows NT 10.0; Win64; x64) AppleWebKit/537.36 (KHTML, like Gecko) Chrome/130.0.0.0 Safari/537.36" version="24.8.3">
  <diagram name="Page-1" id="UPslingoltGqUlNdeTb4">
    <mxGraphModel dx="2901" dy="1106" grid="1" gridSize="10" guides="1" tooltips="1" connect="1" arrows="1" fold="1" page="1" pageScale="1" pageWidth="827" pageHeight="1169" math="0" shadow="0">
      <root>
        <mxCell id="0" />
        <mxCell id="1" parent="0" />
        <mxCell id="rjg5xNJYRgZYAdvwdAU5-2" value="Class: Animals" style="swimlane;whiteSpace=wrap;html=1;fontSize=16;" vertex="1" parent="1">
          <mxGeometry x="460" y="90" width="200" height="80" as="geometry" />
        </mxCell>
        <mxCell id="rjg5xNJYRgZYAdvwdAU5-3" value="&lt;p style=&quot;line-height: 120%;&quot;&gt;&lt;font style=&quot;font-size: 16px;&quot;&gt;Class: Pets&lt;/font&gt;&lt;/p&gt;" style="swimlane;whiteSpace=wrap;html=1;" vertex="1" parent="1">
          <mxGeometry x="80" y="300" width="200" height="70" as="geometry" />
        </mxCell>
        <mxCell id="rjg5xNJYRgZYAdvwdAU5-4" value="&lt;font style=&quot;font-size: 16px;&quot;&gt;Class: Pack Animals&lt;/font&gt;" style="swimlane;whiteSpace=wrap;html=1;" vertex="1" parent="1">
          <mxGeometry x="890" y="300" width="200" height="70" as="geometry" />
        </mxCell>
        <mxCell id="rjg5xNJYRgZYAdvwdAU5-5" value="&lt;font style=&quot;font-size: 16px;&quot;&gt;Class: Cats&lt;/font&gt;" style="swimlane;whiteSpace=wrap;html=1;" vertex="1" parent="1">
          <mxGeometry x="-310" y="465" width="200" height="80" as="geometry" />
        </mxCell>
        <mxCell id="rjg5xNJYRgZYAdvwdAU5-6" value="&lt;font style=&quot;font-size: 16px;&quot;&gt;Class: Dogs&lt;/font&gt;" style="swimlane;whiteSpace=wrap;html=1;" vertex="1" parent="1">
          <mxGeometry x="-100" y="467.5" width="200" height="77.5" as="geometry" />
        </mxCell>
        <mxCell id="rjg5xNJYRgZYAdvwdAU5-8" value="&lt;font style=&quot;font-size: 16px;&quot;&gt;Class: Hamsters&lt;/font&gt;" style="swimlane;whiteSpace=wrap;html=1;" vertex="1" parent="1">
          <mxGeometry x="320" y="470" width="200" height="80" as="geometry" />
        </mxCell>
        <mxCell id="rjg5xNJYRgZYAdvwdAU5-9" value="Class: Horses" style="swimlane;whiteSpace=wrap;html=1;fontSize=16;" vertex="1" parent="1">
          <mxGeometry x="660" y="460" width="200" height="90" as="geometry" />
        </mxCell>
        <mxCell id="rjg5xNJYRgZYAdvwdAU5-10" value="Class: Camels" style="swimlane;whiteSpace=wrap;html=1;fontSize=16;" vertex="1" parent="1">
          <mxGeometry x="1020" y="472.5" width="200" height="90" as="geometry" />
        </mxCell>
        <mxCell id="rjg5xNJYRgZYAdvwdAU5-11" value="Class: Donkeys" style="swimlane;whiteSpace=wrap;html=1;fontSize=16;" vertex="1" parent="1">
          <mxGeometry x="1230" y="470" width="200" height="90" as="geometry" />
        </mxCell>
        <mxCell id="rjg5xNJYRgZYAdvwdAU5-12" value="" style="endArrow=classic;html=1;rounded=0;entryX=0.5;entryY=1;entryDx=0;entryDy=0;exitX=0.5;exitY=0;exitDx=0;exitDy=0;strokeWidth=4;" edge="1" parent="1" source="rjg5xNJYRgZYAdvwdAU5-5" target="rjg5xNJYRgZYAdvwdAU5-3">
          <mxGeometry width="50" height="50" relative="1" as="geometry">
            <mxPoint x="300" y="710" as="sourcePoint" />
            <mxPoint x="440" y="510" as="targetPoint" />
          </mxGeometry>
        </mxCell>
        <mxCell id="rjg5xNJYRgZYAdvwdAU5-13" value="" style="endArrow=classic;html=1;rounded=0;entryX=0.5;entryY=1;entryDx=0;entryDy=0;exitX=0.5;exitY=0;exitDx=0;exitDy=0;strokeWidth=3;" edge="1" parent="1" source="rjg5xNJYRgZYAdvwdAU5-6" target="rjg5xNJYRgZYAdvwdAU5-3">
          <mxGeometry width="50" height="50" relative="1" as="geometry">
            <mxPoint x="390" y="560" as="sourcePoint" />
            <mxPoint x="440" y="510" as="targetPoint" />
          </mxGeometry>
        </mxCell>
        <mxCell id="rjg5xNJYRgZYAdvwdAU5-14" value="" style="endArrow=classic;html=1;rounded=0;entryX=0.5;entryY=1;entryDx=0;entryDy=0;exitX=0.5;exitY=0;exitDx=0;exitDy=0;strokeWidth=3;" edge="1" parent="1" source="rjg5xNJYRgZYAdvwdAU5-8" target="rjg5xNJYRgZYAdvwdAU5-3">
          <mxGeometry width="50" height="50" relative="1" as="geometry">
            <mxPoint x="390" y="560" as="sourcePoint" />
            <mxPoint x="440" y="510" as="targetPoint" />
          </mxGeometry>
        </mxCell>
        <mxCell id="rjg5xNJYRgZYAdvwdAU5-15" value="" style="endArrow=classic;html=1;rounded=0;entryX=0.5;entryY=1;entryDx=0;entryDy=0;exitX=0.5;exitY=0;exitDx=0;exitDy=0;strokeWidth=3;" edge="1" parent="1" source="rjg5xNJYRgZYAdvwdAU5-3" target="rjg5xNJYRgZYAdvwdAU5-2">
          <mxGeometry width="50" height="50" relative="1" as="geometry">
            <mxPoint x="390" y="560" as="sourcePoint" />
            <mxPoint x="440" y="510" as="targetPoint" />
          </mxGeometry>
        </mxCell>
        <mxCell id="rjg5xNJYRgZYAdvwdAU5-16" value="" style="endArrow=classic;html=1;rounded=0;entryX=0.5;entryY=1;entryDx=0;entryDy=0;exitX=0.5;exitY=0;exitDx=0;exitDy=0;strokeWidth=3;" edge="1" parent="1" source="rjg5xNJYRgZYAdvwdAU5-4" target="rjg5xNJYRgZYAdvwdAU5-2">
          <mxGeometry width="50" height="50" relative="1" as="geometry">
            <mxPoint x="390" y="560" as="sourcePoint" />
            <mxPoint x="440" y="510" as="targetPoint" />
          </mxGeometry>
        </mxCell>
        <mxCell id="rjg5xNJYRgZYAdvwdAU5-17" value="" style="endArrow=classic;html=1;rounded=0;entryX=0.5;entryY=1;entryDx=0;entryDy=0;exitX=0.5;exitY=0;exitDx=0;exitDy=0;strokeWidth=3;" edge="1" parent="1" source="rjg5xNJYRgZYAdvwdAU5-9" target="rjg5xNJYRgZYAdvwdAU5-4">
          <mxGeometry width="50" height="50" relative="1" as="geometry">
            <mxPoint x="390" y="560" as="sourcePoint" />
            <mxPoint x="440" y="510" as="targetPoint" />
          </mxGeometry>
        </mxCell>
        <mxCell id="rjg5xNJYRgZYAdvwdAU5-18" value="" style="endArrow=classic;html=1;rounded=0;entryX=0.5;entryY=1;entryDx=0;entryDy=0;exitX=0.5;exitY=0;exitDx=0;exitDy=0;strokeWidth=3;" edge="1" parent="1" source="rjg5xNJYRgZYAdvwdAU5-10" target="rjg5xNJYRgZYAdvwdAU5-4">
          <mxGeometry width="50" height="50" relative="1" as="geometry">
            <mxPoint x="390" y="560" as="sourcePoint" />
            <mxPoint x="440" y="510" as="targetPoint" />
          </mxGeometry>
        </mxCell>
        <mxCell id="rjg5xNJYRgZYAdvwdAU5-19" value="" style="endArrow=classic;html=1;rounded=0;entryX=0.5;entryY=1;entryDx=0;entryDy=0;exitX=0.5;exitY=0;exitDx=0;exitDy=0;strokeWidth=3;" edge="1" parent="1" source="rjg5xNJYRgZYAdvwdAU5-11" target="rjg5xNJYRgZYAdvwdAU5-4">
          <mxGeometry width="50" height="50" relative="1" as="geometry">
            <mxPoint x="390" y="560" as="sourcePoint" />
            <mxPoint x="440" y="510" as="targetPoint" />
          </mxGeometry>
        </mxCell>
        <mxCell id="rjg5xNJYRgZYAdvwdAU5-20" value="&lt;font style=&quot;font-size: 14px;&quot;&gt;Child&lt;/font&gt;" style="text;html=1;align=center;verticalAlign=middle;whiteSpace=wrap;rounded=0;" vertex="1" parent="1">
          <mxGeometry x="140" y="270" width="60" height="30" as="geometry" />
        </mxCell>
        <mxCell id="rjg5xNJYRgZYAdvwdAU5-21" value="Parent" style="text;html=1;align=center;verticalAlign=middle;whiteSpace=wrap;rounded=0;fontSize=14;" vertex="1" parent="1">
          <mxGeometry x="530" y="180" width="60" height="30" as="geometry" />
        </mxCell>
        <mxCell id="rjg5xNJYRgZYAdvwdAU5-22" value="Child" style="text;html=1;align=center;verticalAlign=middle;whiteSpace=wrap;rounded=0;fontSize=14;" vertex="1" parent="1">
          <mxGeometry x="990" y="270" width="60" height="30" as="geometry" />
        </mxCell>
        <mxCell id="rjg5xNJYRgZYAdvwdAU5-24" value="Parent" style="text;html=1;align=center;verticalAlign=middle;whiteSpace=wrap;rounded=0;fontSize=14;" vertex="1" parent="1">
          <mxGeometry x="160" y="380" width="60" height="30" as="geometry" />
        </mxCell>
        <mxCell id="rjg5xNJYRgZYAdvwdAU5-25" value="Parent" style="text;html=1;align=center;verticalAlign=middle;whiteSpace=wrap;rounded=0;fontSize=14;" vertex="1" parent="1">
          <mxGeometry x="950" y="380" width="60" height="30" as="geometry" />
        </mxCell>
        <mxCell id="rjg5xNJYRgZYAdvwdAU5-26" value="&lt;font style=&quot;font-size: 14px;&quot;&gt;Child&lt;/font&gt;" style="text;html=1;align=center;verticalAlign=middle;whiteSpace=wrap;rounded=0;" vertex="1" parent="1">
          <mxGeometry x="-260" y="435" width="60" height="30" as="geometry" />
        </mxCell>
        <mxCell id="rjg5xNJYRgZYAdvwdAU5-27" value="&lt;font style=&quot;font-size: 14px;&quot;&gt;Child&lt;/font&gt;" style="text;html=1;align=center;verticalAlign=middle;whiteSpace=wrap;rounded=0;" vertex="1" parent="1">
          <mxGeometry x="20" y="442.5" width="60" height="30" as="geometry" />
        </mxCell>
        <mxCell id="rjg5xNJYRgZYAdvwdAU5-28" value="&lt;font style=&quot;font-size: 14px;&quot;&gt;Child&lt;/font&gt;" style="text;html=1;align=center;verticalAlign=middle;whiteSpace=wrap;rounded=0;" vertex="1" parent="1">
          <mxGeometry x="420" y="442.5" width="60" height="30" as="geometry" />
        </mxCell>
        <mxCell id="rjg5xNJYRgZYAdvwdAU5-29" value="&lt;font style=&quot;font-size: 14px;&quot;&gt;Child&lt;/font&gt;" style="text;html=1;align=center;verticalAlign=middle;whiteSpace=wrap;rounded=0;" vertex="1" parent="1">
          <mxGeometry x="700" y="430" width="60" height="30" as="geometry" />
        </mxCell>
        <mxCell id="rjg5xNJYRgZYAdvwdAU5-30" value="&lt;font style=&quot;font-size: 14px;&quot;&gt;Child&lt;/font&gt;" style="text;html=1;align=center;verticalAlign=middle;whiteSpace=wrap;rounded=0;" vertex="1" parent="1">
          <mxGeometry x="1110" y="442.5" width="60" height="30" as="geometry" />
        </mxCell>
        <mxCell id="rjg5xNJYRgZYAdvwdAU5-31" value="&lt;font style=&quot;font-size: 14px;&quot;&gt;Child&lt;/font&gt;" style="text;html=1;align=center;verticalAlign=middle;whiteSpace=wrap;rounded=0;" vertex="1" parent="1">
          <mxGeometry x="1330" y="442.5" width="60" height="30" as="geometry" />
        </mxCell>
      </root>
    </mxGraphModel>
  </diagram>
</mxfile>
